<svg height="512pt" viewBox="0 -18 512 512" width="512pt" xmlns="http://www.w3.org/2000/svg"><path d="m407 0h-194.625c-46.980469 0-86.855469 31.019531-100.21875 73.652344h-7.15625c-57.898438 0-105 47.101562-105 105v193.191406c0 57.898438 47.101562 105 105 105h194.625c46.980469 0 86.855469-31.015625 100.21875-73.652344h7.15625c57.898438 0 105-47.101562 105-105v-193.191406c0-57.898438-47.101562-105-105-105zm75 298.191406c0 41.355469-33.644531 75-75 75h-2.394531c.007812-.449218.019531-.894531.019531-1.347656v-193.191406c0-57.898438-47.105469-105-105-105h-155.355469c11.894531-25.742188 37.941407-43.652344 68.105469-43.652344h194.625c41.355469 0 75 33.644531 75 75zm-182.375 148.652344h-194.625c-41.355469 0-75-33.644531-75-75v-193.191406c0-41.355469 33.644531-75 75-75h194.625c41.355469 0 75 33.644531 75 75v193.191406c0 41.355469-33.644531 75-75 75zm0 0"/><path d="m134.878906 274.046875c37.847656 0 68.636719 30.789063 68.636719 68.632813 0 8.285156 6.714844 15 15 15 8.28125 0 15-6.714844 15-15 0-54.386719-44.25-98.632813-98.636719-98.632813-8.28125 0-15 6.714844-15 15 0 8.28125 6.71875 15 15 15zm0 0"/><path d="m128.660156 333.464844c8.511719 0 15.433594 6.921875 15.433594 15.433594 0 8.285156 6.71875 15 15 15 8.285156 0 15-6.714844 15-15 0-25.050782-20.378906-45.433594-45.433594-45.433594-8.285156 0-15 6.714844-15 15 0 8.28125 6.714844 15 15 15zm0 0"/><path d="m143.195312 216.597656c64.9375 0 117.769532 52.828125 117.769532 117.765625 0 8.285157 6.714844 15 15 15 8.28125 0 15-6.714843 15-15 0-81.480469-66.289063-147.765625-147.769532-147.765625-8.285156 0-15 6.714844-15 15 0 8.28125 6.714844 15 15 15zm0 0"/></svg>