<svg width="466.0800048828125px" height="172.00126953125px" xmlns="http://www.w3.org/2000/svg" viewBox="16.959997558593756 -11.000634765624994 466.0800048828125 172.00126953125" style="background-image: none; background-position: initial initial; background-repeat: initial initial;" preserveAspectRatio="xMidYMid"><defs><filter id="editing-extrusion" x="-100%" y="-100%" width="300%" height="300%"><feFlood result="color1" flood-color="#ffe691"></feFlood><feConvolveMatrix order="16,16" divisor="1" kernelMatrix="1 0 0 0 0 0 0 0 0 0 0 0 0 0 0 0 0 1 0 0 0 0 0 0 0 0 0 0 0 0 0 0 0 0 1 0 0 0 0 0 0 0 0 0 0 0 0 0 0 0 0 1 0 0 0 0 0 0 0 0 0 0 0 0 0 0 0 0 1 0 0 0 0 0 0 0 0 0 0 0 0 0 0 0 0 1 0 0 0 0 0 0 0 0 0 0 0 0 0 0 0 0 1 0 0 0 0 0 0 0 0 0 0 0 0 0 0 0 0 1 0 0 0 0 0 0 0 0 0 0 0 0 0 0 0 0 1 0 0 0 0 0 0 0 0 0 0 0 0 0 0 0 0 1 0 0 0 0 0 0 0 0 0 0 0 0 0 0 0 0 1 0 0 0 0 0 0 0 0 0 0 0 0 0 0 0 0 1 0 0 0 0 0 0 0 0 0 0 0 0 0 0 0 0 1 0 0 0 0 0 0 0 0 0 0 0 0 0 0 0 0 1 0 0 0 0 0 0 0 0 0 0 0 0 0 0 0 0 1 0 0 0 0 0 0 0 0 0 0 0 0 0 0 0 0 1" in="SourceAlpha" result="extrude"></feConvolveMatrix><feComposite in="color1" in2="extrude" result="comp-extrude" operator="in"></feComposite><feOffset dx="8" dy="8" in="comp-extrude" result="offset-extrude"></feOffset><feMerge><feMergeNode in="offset-extrude"></feMergeNode><feMergeNode in="SourceGraphic"></feMergeNode></feMerge></filter></defs><g filter="url(#editing-extrusion)"><g transform="translate(85.71499389410019, 108.1853141784668)"><path d="M46.12-21.90L46.12-61.88L41.09-61.88L41.09-44.96L20.98-44.96L20.98-61.88L15.86-61.88L15.86-21.90L20.98-21.90L20.98-39.88L41.09-39.88L41.09-21.90L46.12-21.90ZM21.17-66.23L36.06-66.23L36.06-66.23Q40.94-66.23 44.91-64.78L44.91-64.78L44.91-64.78Q48.87-63.33 51.65-60.81L51.65-60.81L51.65-60.81Q54.43-58.30 55.93-54.94L55.93-54.94L55.93-54.94Q57.43-51.58 57.43-47.81L57.43-47.81L57.43-18.42L57.43-18.42Q57.43-14.65 55.93-11.29L55.93-11.29L55.93-11.29Q54.43-7.93 51.65-5.41L51.65-5.41L51.65-5.41Q48.87-2.90 44.91-1.45L44.91-1.45L44.91-1.45Q40.94 0 36.06 0L36.06 0L21.17 0L21.17 0Q16.29 0 12.33-1.45L12.33-1.45L12.33-1.45Q8.36-2.90 5.58-5.41L5.58-5.41L5.58-5.41Q2.80-7.93 1.31-11.29L1.31-11.29L1.31-11.29Q-0.19-14.65-0.19-18.42L-0.19-18.42L-0.19-47.81L-0.19-47.81Q-0.19-51.58 1.31-54.94L1.31-54.94L1.31-54.94Q2.80-58.30 5.58-60.81L5.58-60.81L5.58-60.81Q8.36-63.33 12.33-64.78L12.33-64.78L12.33-64.78Q16.29-66.23 21.17-66.23L21.17-66.23ZM85.95-27.02L74.54-27.02L74.54-21.90L102.48-21.90L102.48-27.02L91.12-27.02L91.12-56.75L102.48-56.75L102.48-61.88L74.54-61.88L74.54-56.75L85.95-56.75L85.95-27.02ZM78.41-66.23L93.30-66.23L93.30-66.23Q98.18-66.23 102.14-64.78L102.14-64.78L102.14-64.78Q106.11-63.33 108.89-60.81L108.89-60.81L108.89-60.81Q111.67-58.30 113.16-54.94L113.16-54.94L113.16-54.94Q114.66-51.58 114.66-47.81L114.66-47.81L114.66-18.42L114.66-18.42Q114.66-14.65 113.16-11.29L113.16-11.29L113.16-11.29Q111.67-7.93 108.89-5.41L108.89-5.41L108.89-5.41Q106.11-2.90 102.14-1.45L102.14-1.45L102.14-1.45Q98.18 0 93.30 0L93.30 0L78.41 0L78.41 0Q73.52 0 69.56-1.45L69.56-1.45L69.56-1.45Q65.60-2.90 62.82-5.41L62.82-5.41L62.82-5.41Q60.04-7.93 58.54-11.29L58.54-11.29L58.54-11.29Q57.04-14.65 57.04-18.42L57.04-18.42L57.04-47.81L57.04-47.81Q57.04-51.58 58.54-54.94L58.54-54.94L58.54-54.94Q60.04-58.30 62.82-60.81L62.82-60.81L62.82-60.81Q65.60-63.33 69.56-64.78L69.56-64.78L69.56-64.78Q73.52-66.23 78.41-66.23L78.41-66.23ZM126.55-44.38L144.78-44.38L144.78-49.60L126.55-49.60L126.55-44.38ZM135.64 0L135.64 0L135.64 0Q130.76 0 126.80-1.45L126.80-1.45L126.80-1.45Q122.83-2.90 120.05-5.41L120.05-5.41L120.05-5.41Q117.27-7.93 115.77-11.29L115.77-11.29L115.77-11.29Q114.28-14.65 114.28-18.42L114.28-18.42L114.28-47.81L114.28-47.81Q114.28-51.58 115.77-54.94L115.77-54.94L115.77-54.94Q117.27-58.30 120.05-60.81L120.05-60.81L120.05-60.81Q122.83-63.33 126.80-64.78L126.80-64.78L126.80-64.78Q130.76-66.23 135.64-66.23L135.64-66.23L135.64-66.23Q140.57-66.23 144.51-64.78L144.51-64.78L144.51-64.78Q148.45-63.33 151.26-60.81L151.26-60.81L151.26-60.81Q154.06-58.30 155.56-54.94L155.56-54.94L155.56-54.94Q157.06-51.58 157.06-47.81L157.06-47.81L157.06-18.42L157.06-18.42Q157.06-14.65 155.56-11.29L155.56-11.29L155.56-11.29Q154.06-7.93 151.26-5.41L151.26-5.41L151.26-5.41Q148.45-2.90 144.51-1.45L144.51-1.45L144.51-1.45Q140.57 0 135.64 0ZM185.58-27.02L174.17-27.02L174.17-21.90L202.11-21.90L202.11-27.02L190.75-27.02L190.75-56.75L202.11-56.75L202.11-61.88L174.17-61.88L174.17-56.75L185.58-56.75L185.58-27.02ZM178.04-66.23L192.92-66.23L192.92-66.23Q197.81-66.23 201.77-64.78L201.77-64.78L201.77-64.78Q205.73-63.33 208.51-60.81L208.51-60.81L208.51-60.81Q211.29-58.30 212.79-54.94L212.79-54.94L212.79-54.94Q214.29-51.58 214.29-47.81L214.29-47.81L214.29-18.42L214.29-18.42Q214.29-14.65 212.79-11.29L212.79-11.29L212.79-11.29Q211.29-7.93 208.51-5.41L208.51-5.41L208.51-5.41Q205.73-2.90 201.77-1.45L201.77-1.45L201.77-1.45Q197.81 0 192.92 0L192.92 0L178.04 0L178.04 0Q173.15 0 169.19-1.45L169.19-1.45L169.19-1.45Q165.23-2.90 162.45-5.41L162.45-5.41L162.45-5.41Q159.67-7.93 158.17-11.29L158.17-11.29L158.17-11.29Q156.67-14.65 156.67-18.42L156.67-18.42L156.67-47.81L156.67-47.81Q156.67-51.58 158.17-54.94L158.17-54.94L158.17-54.94Q159.67-58.30 162.45-60.81L162.45-60.81L162.45-60.81Q165.23-63.33 169.19-64.78L169.19-64.78L169.19-64.78Q173.15-66.23 178.04-66.23L178.04-66.23ZM235.27-66.23L250.16-66.23L250.16-66.23Q255.04-66.23 259.00-64.78L259.00-64.78L259.00-64.78Q262.97-63.33 265.75-60.81L265.75-60.81L265.75-60.81Q268.53-58.30 270.03-54.94L270.03-54.94L270.03-54.94Q271.52-51.58 271.52-47.81L271.52-47.81L271.52-18.42L271.52-18.42Q271.52-14.65 270.03-11.29L270.03-11.29L270.03-11.29Q268.53-7.93 265.75-5.41L265.75-5.41L265.75-5.41Q262.97-2.90 259.00-1.45L259.00-1.45L259.00-1.45Q255.04 0 250.16 0L250.16 0L235.27 0L235.27 0Q230.39 0 226.42-1.45L226.42-1.45L226.42-1.45Q222.46-2.90 219.68-5.41L219.68-5.41L219.68-5.41Q216.90-7.93 215.40-11.29L215.40-11.29L215.40-11.29Q213.90-14.65 213.90-18.42L213.90-18.42L213.90-47.81L213.90-47.81Q213.90-51.58 215.40-54.94L215.40-54.94L215.40-54.94Q216.90-58.30 219.68-60.81L219.68-60.81L219.68-60.81Q222.46-63.33 226.42-64.78L226.42-64.78L226.42-64.78Q230.39-66.23 235.27-66.23L235.27-66.23ZM259.25-29.68L259.25-37.03L258.57-41.19L255.48-44.23L250.45-44.76L239.62-44.76L236.67-45.34L236.67-45.34Q236.43-46.16 236.33-46.82L236.33-46.82L236.33-46.82Q236.24-47.47 236.00-48.19L236.00-48.19L236.00-53.27L236.67-56.12L239.86-56.75L252.14-56.75L256.68-55.83L257.84-61.10L252.24-61.88L239.52-61.88L234.69-61.20L231.55-58.10L230.92-54.04L230.92-47.42L231.55-43.36L234.69-40.32L239.52-39.69L250.45-39.69L253.40-39.20L253.40-39.20Q253.54-38.48 253.74-37.85L253.74-37.85L253.74-37.85Q253.93-37.22 254.07-36.54L254.07-36.54L254.07-30.21L254.07-30.21Q253.98-29.58 253.76-28.86L253.76-28.86L253.76-28.86Q253.54-28.13 253.40-27.51L253.40-27.51L250.26-27.02L238.27-27.02L233.53-27.80L232.32-22.57L237.98-21.90L250.55-21.90L255.48-22.48L258.57-25.52L259.25-29.68ZM317.45-21.90L317.45-61.88L312.42-61.88L312.42-44.96L292.31-44.96L292.31-61.88L287.19-61.88L287.19-21.90L292.31-21.90L292.31-39.88L312.42-39.88L312.42-21.90L317.45-21.90ZM292.50-66.23L307.39-66.23L307.39-66.23Q312.28-66.23 316.24-64.78L316.24-64.78L316.24-64.78Q320.20-63.33 322.98-60.81L322.98-60.81L322.98-60.81Q325.76-58.30 327.26-54.94L327.26-54.94L327.26-54.94Q328.76-51.58 328.76-47.81L328.76-47.81L328.76-18.42L328.76-18.42Q328.76-14.65 327.26-11.29L327.26-11.29L327.26-11.29Q325.76-7.93 322.98-5.41L322.98-5.41L322.98-5.41Q320.20-2.90 316.24-1.45L316.24-1.45L316.24-1.45Q312.28 0 307.39 0L307.39 0L292.50 0L292.50 0Q287.62 0 283.66-1.45L283.66-1.45L283.66-1.45Q279.69-2.90 276.91-5.41L276.91-5.41L276.91-5.41Q274.14-7.93 272.64-11.29L272.64-11.29L272.64-11.29Q271.14-14.65 271.14-18.42L271.14-18.42L271.14-47.81L271.14-47.81Q271.14-51.58 272.64-54.94L272.64-54.94L272.64-54.94Q274.14-58.30 276.91-60.81L276.91-60.81L276.91-60.81Q279.69-63.33 283.66-64.78L283.66-64.78L283.66-64.78Q287.62-66.23 292.50-66.23L292.50-66.23Z" fill="#ffb6bb"></path></g></g><style>text {
  font-size: 64px;
  font-family: Arial Black;
  dominant-baseline: central;
  text-anchor: middle;
}</style></svg>