<svg id="Capa_1" enable-background="new 0 0 512 512" height="512" viewBox="0 0 512 512" width="512" xmlns="http://www.w3.org/2000/svg"><g><g fill="#a2ddfd"><path d="m385.548 256.216c-13.152 0-23.813-10.661-23.813-23.813s10.661-23.813 23.813-23.813c12.273 0 54.486-3.504 82.386-48.588 6.92-11.184 21.596-14.641 32.78-7.718 11.183 6.92 14.639 21.596 7.718 32.78-29.049 46.943-76.809 71.152-122.884 71.152z"/><path d="m12.658 334.949c-11.618-6.164-16.04-20.578-9.876-32.196 15.148-28.553 53.928-71.545 79.796-88.464 11.007-7.199 25.765-4.112 32.963 6.895 7.199 11.007 4.112 25.765-6.895 32.963-19.097 12.491-52.484 49.611-63.792 70.927-6.133 11.558-20.524 16.067-32.196 9.875z"/><path d="m12.658 334.949c-11.618-6.164-16.04-20.578-9.876-32.196 15.148-28.553 53.928-71.545 79.796-88.464 11.007-7.199 25.765-4.112 32.963 6.895 7.199 11.007 4.112 25.765-6.895 32.963-19.097 12.491-52.484 49.611-63.792 70.927-6.133 11.558-20.524 16.067-32.196 9.875z"/><path d="m151.547 445.508c-2.01-15.222-7.14-67.589 11.222-102.316 6.147-11.626 20.555-16.069 32.182-9.921 11.626 6.147 16.068 20.556 9.921 32.182-8.717 16.486-9.277 49.824-6.109 73.822 1.721 13.039-7.453 25.004-20.491 26.725-13.068 1.724-25.008-7.481-26.725-20.492z"/><path d="m325.484 466.207c-14.466 0-25.515-12.712-23.639-26.932 3.168-24 2.607-57.338-6.109-73.822-6.147-11.626-1.706-26.035 9.92-32.183 11.625-6.146 26.034-1.707 32.183 9.92 18.361 34.725 13.232 87.093 11.223 102.316-1.581 11.982-11.812 20.701-23.578 20.701z"/></g><path d="m189.775 84.656c-29.8-28.19-71.741-37.12-95.969-38.824-8.511-.599-15.909 5.805-16.45 14.319-2.437 38.389 13.922 91.461 31.99 106.948z" fill="#8f8bd5"/><path d="m81.424 50.713c-2.322 2.494-3.835 5.768-4.068 9.439-2.437 38.389 13.922 91.461 31.99 106.948l42.971-44.047c-19.599-39.256-50.632-61.54-70.893-72.34z" fill="#eda1ab"/><path d="m310.834 84.656c29.8-28.19 71.741-37.12 95.969-38.824 8.51-.599 15.909 5.805 16.45 14.319 2.437 38.389-13.923 91.461-31.99 106.948z" fill="#8f8bd5"/><path d="m419.185 50.713c2.322 2.494 3.835 5.768 4.068 9.439 2.437 38.389-13.922 91.461-31.99 106.948l-42.971-44.047c19.598-39.256 50.631-61.54 70.893-72.34z" fill="#eda1ab"/><path d="m467.934 160.002c-27.9 45.084-70.113 48.588-82.386 48.588-13.152 0-23.813 10.661-23.813 23.813s10.661 23.813 23.813 23.813c26.146 0 52.83-7.804 76.334-23.126-.702-5.163-1.614-10.383-2.737-15.65 3.824-2.891 7.452-6.104 10.873-9.631 9.136-9.422 12.919-22.704 10.121-35.53-1.391-6.375-4.309-12.174-8.389-16.985-1.436 1.37-2.723 2.942-3.816 4.708z" fill="#7acdf9"/><path d="m305.657 333.27c-11.626 6.148-16.068 20.556-9.92 32.183 8.716 16.484 9.277 49.822 6.109 73.822-.077.582-.124 1.159-.158 1.735 12.608-2.75 24.921-6.498 36.735-11.215 4.018 1.083 8.018 1.965 11.996 2.665 1.763-22.291 2.137-61.438-12.579-89.269-6.149-11.627-20.558-16.067-32.183-9.921z" fill="#7acdf9"/><path d="m194.951 333.27c-11.627-6.148-26.035-1.705-32.182 9.921-14.716 27.832-14.341 66.978-12.578 89.268 3.978-.699 7.978-1.582 11.996-2.665 11.814 4.717 24.127 8.465 36.735 11.215-.034-.576-.082-1.154-.158-1.735-3.168-23.998-2.608-57.336 6.109-73.822 6.146-11.625 1.705-26.034-9.922-32.182z" fill="#7acdf9"/><path d="m82.578 214.289c-13.416 8.774-30.299 24.564-45.563 41.713-.009.718-.031 1.44-.031 2.155 0 20.841 3.835 41.306 11.388 60.885 13.616-21.69 42.874-53.514 60.274-64.896 11.006-7.199 14.093-21.957 6.895-32.963s-21.955-14.093-32.963-6.894z" fill="#7acdf9"/><path d="m250.304 415.644c31.273 0 60.704-6.799 86.429-18.771 28.816 10.459 53.544 7.727 71.711-2.993 5.781-3.411 8.35-10.484 6.065-16.795-3.231-8.926-4.243-22.648-2.55-36.093.975-7.748 3.371-15.243 6.76-22.278 2.307-4.789 3.7-8.296 3.7-8.296 6.663-16.355 10.299-33.941 10.299-52.263 0-17.844-3.443-37.01-9.777-56.204 8.598-2.814 17.147-7.673 24.893-15.662 4.089-4.217 2.507-11.23-2.967-13.359-23.021-8.953-55.779-37.081-66.378-51.047 0 0-50.306-69.094-128.185-69.094s-128.185 69.094-128.185 69.094c-10.599 13.966-43.357 42.094-66.378 51.047-5.475 2.129-7.057 9.142-2.967 13.359 7.746 7.989 16.294 12.848 24.893 15.662-6.334 19.194-9.777 38.36-9.777 56.204 0 18.322 3.636 35.908 10.299 52.263 0 0 1.393 3.507 3.7 8.296 3.389 7.035 5.785 14.53 6.76 22.278 1.692 13.446.681 27.167-2.55 36.093-2.285 6.312.284 13.384 6.065 16.795 18.167 10.719 42.895 13.452 71.711 2.993 25.725 11.973 55.157 18.771 86.429 18.771z" fill="#b39bdb"/><g><g fill="#fff"><ellipse cx="175.258" cy="154.791" rx="29.792" ry="23.725"/><ellipse cx="336.742" cy="154.791" rx="29.792" ry="23.725"/></g><g fill="#4e5660"><path d="m206.801 136.474c-4.142 0-7.5-3.358-7.5-7.5 0-3.684-2.997-6.68-6.681-6.68s-6.68 2.997-6.68 6.68c0 4.142-3.358 7.5-7.5 7.5s-7.5-3.358-7.5-7.5c0-11.955 9.726-21.68 21.68-21.68 11.955 0 21.681 9.726 21.681 21.68 0 4.142-3.358 7.5-7.5 7.5z"/><path d="m333.56 136.474c-4.142 0-7.5-3.358-7.5-7.5 0-3.684-2.997-6.68-6.68-6.68-3.684 0-6.681 2.997-6.681 6.68 0 4.142-3.358 7.5-7.5 7.5s-7.5-3.358-7.5-7.5c0-11.955 9.726-21.68 21.681-21.68s21.68 9.726 21.68 21.68c0 4.142-3.358 7.5-7.5 7.5z"/><path d="m256 159.901c-7.932 0-15.476-3.436-20.696-9.425-2.722-3.123-2.396-7.86.726-10.582s7.86-2.397 10.582.726c2.371 2.721 5.793 4.281 9.388 4.281s7.017-1.56 9.388-4.281c2.722-3.123 7.459-3.448 10.581-.726 3.123 2.721 3.448 7.459.726 10.582-5.219 5.99-12.763 9.425-20.695 9.425z"/></g></g><g><path d="m278.147 332.377c-4.142 0-7.5-3.358-7.5-7.5v-101.621c0-4.142 3.358-7.5 7.5-7.5s7.5 3.358 7.5 7.5v101.621c0 4.142-3.358 7.5-7.5 7.5z" fill="#fff"/></g><path d="m223.714 215.756c-4.142 0-7.5 3.358-7.5 7.5v41.567h-55.323v-41.567c0-4.142-3.358-7.5-7.5-7.5s-7.5 3.358-7.5 7.5v101.621c0 4.142 3.358 7.5 7.5 7.5s7.5-3.358 7.5-7.5v-45.053h55.323v45.053c0 4.142 3.358 7.5 7.5 7.5s7.5-3.358 7.5-7.5v-101.621c0-4.142-3.358-7.5-7.5-7.5z" fill="#f4c8d2"/><g><path d="m348.205 342.124c0 4.315-3.498 7.812-7.812 7.812-4.315 0-7.812-3.498-7.812-7.812 0-4.315 3.497-7.812 7.812-7.812 4.314 0 7.812 3.497 7.812 7.812z" fill="#f6ee86"/><g><g><path d="m340.507 317.916c-4.142 0-7.5-3.358-7.5-7.5v-100.015c0-4.142 3.358-7.5 7.5-7.5s7.5 3.358 7.5 7.5v100.015c0 4.142-3.358 7.5-7.5 7.5z" fill="#f6ee86"/></g></g></g></g></svg>